<svg xmlns="http://www.w3.org/2000/svg" xmlns:xlink="http://www.w3.org/1999/xlink" version="1.1" id="Layer_1" x="0px" y="0px" viewBox="0 0 2048 2048" style="enable-background:new 0 0 2048 2048;" xml:space="preserve">
<rect id="background" x="0" style="fill:#F5FAFF;" width="2048" height="2048"/>

<line style="fill:none;stroke:#000000;stroke-width:8.192;stroke-linecap:round;stroke-linejoin:round;stroke-miterlimit:10;" x1="217.237" y1="1522.485" x2="1868.605" y2="1522.485"/>
<g id="Pc">
	<path style="fill:#CAE6F7;" d="M1268.053,966.52H740.669c-18.277,0-33.093-14.816-33.093-33.093V681.06   c0-18.276,14.816-33.093,33.093-33.093h527.384c18.277,0,33.093,14.816,33.093,33.093v252.367   C1301.146,951.704,1286.329,966.52,1268.053,966.52z"/>
	<g>
		<path style="fill:#007CF4;" d="M1268.053,972.06H740.669c-21.304,0-38.633-17.33-38.633-38.632V681.061    c0-21.302,17.329-38.633,38.633-38.633h527.384c21.304,0,38.633,17.331,38.633,38.633v252.367    C1306.687,954.73,1289.357,972.06,1268.053,972.06z M740.669,653.506c-15.195,0-27.554,12.362-27.554,27.554v252.367    c0,15.193,12.36,27.552,27.554,27.552h527.384c15.194,0,27.554-12.36,27.554-27.552V681.061c0-15.193-12.36-27.554-27.554-27.554    H740.669z"/>
	</g>
</g>
<g id="table">
	<g>
		<g>
			<path style="fill:#BBE0F8;" d="M450.754,1730.07h-0.618c-7.037,0-12.741-5.704-12.741-12.741v-505.824     c0-7.037,5.704-12.741,12.741-12.741h0.618c7.037,0,12.741,5.704,12.741,12.741v505.824     C463.495,1724.365,457.791,1730.07,450.754,1730.07z"/>
			<path style="fill:#BBE0F8;" d="M547.868,1618.892h-3.441c-6.257,0-11.33-5.073-11.33-11.33v-397.469     c0-6.257,5.073-11.33,11.33-11.33h3.441c6.257,0,11.33,5.073,11.33,11.33v397.469     C559.198,1613.82,554.125,1618.892,547.868,1618.892z"/>
			<rect x="437.394" y="1217.361" style="fill:#72C4F4;" width="26.101" height="26.101"/>
			<rect x="533.097" y="1217.361" style="fill:#72C4F4;" width="26.101" height="13.05"/>
		</g>
		<g>
			<path style="fill:#BBE0F8;" d="M1590.521,1730.07h0.619c7.037,0,12.741-5.704,12.741-12.741v-505.824     c0-7.037-5.704-12.741-12.741-12.741h-0.619c-7.037,0-12.741,5.704-12.741,12.741v505.824     C1577.78,1724.365,1583.485,1730.07,1590.521,1730.07z"/>
			<path style="fill:#BBE0F8;" d="M1493.407,1618.892h3.441c6.257,0,11.33-5.073,11.33-11.33v-397.469     c0-6.257-5.073-11.33-11.33-11.33h-3.441c-6.257,0-11.33,5.073-11.33,11.33v397.469     C1482.077,1613.82,1487.15,1618.892,1493.407,1618.892z"/>
			
				<rect x="1577.78" y="1217.361" transform="matrix(-1 -1.224647e-16 1.224647e-16 -1 3181.6611 2460.8235)" style="fill:#72C4F4;" width="26.101" height="26.101"/>
			
				<rect x="1482.077" y="1217.361" transform="matrix(-1 -1.224647e-16 1.224647e-16 -1 2990.2554 2447.7732)" style="fill:#72C4F4;" width="26.101" height="13.05"/>
		</g>
	</g>
	<g>
		<polygon style="fill:#BBE0F8;" points="1678.018,1198.764 366.104,1198.764 546.148,1024.557 1474.847,1024.557   "/>
		<rect x="366.104" y="1198.764" style="fill:#007CF4;" width="1311.914" height="18.598"/>
	</g>
	<path style="fill:#72C4F4;" d="M1322.738,1166.823H672.525c-6.875,0-10.78-7.868-6.624-13.344l68.656-90.452   c1.558-2.053,3.98-3.267,6.558-3.288l521.977-4.153c2.88-0.023,5.568,1.447,7.103,3.884l59.579,94.605   C1333.262,1159.613,1329.282,1166.823,1322.738,1166.823z"/>
</g>
<g>
	<g>
		<path style="fill:#007CF4;" d="M546.438,549.719H821.57c13.897,0,25.163,11.266,25.163,25.163v115.969    c0,13.897-11.266,25.163-25.163,25.163h-25.51v62.662l-66.654-62.662H546.438c-13.897,0-25.163-11.266-25.163-25.163V574.882    C521.275,560.985,532.541,549.719,546.438,549.719z"/>
		<g>
			<path style="fill:#F5FAFF;" d="M563.168,612.054H804.84c4.732,0,8.569-3.836,8.569-8.569v0c0-4.732-3.836-8.569-8.569-8.569     H563.168c-4.732,0-8.569,3.836-8.569,8.569v0C554.599,608.218,558.436,612.054,563.168,612.054z"/>
			<path style="fill:#F5FAFF;" d="M563.168,641.056H804.84c4.732,0,8.569-3.836,8.569-8.569l0,0c0-4.732-3.836-8.569-8.569-8.569     H563.168c-4.732,0-8.569,3.836-8.569,8.569l0,0C554.599,637.22,558.436,641.056,563.168,641.056z"/>
			<path style="fill:#F5FAFF;" d="M649.842,670.058H804.84c4.732,0,8.569-3.836,8.569-8.569l0,0c0-4.732-3.836-8.569-8.569-8.569     H649.842c-4.732,0-8.569,3.836-8.569,8.569l0,0C641.274,666.221,645.11,670.058,649.842,670.058z"/>
		</g>
	</g>
	<g>
		<path style="fill:#FFFFFF;" d="M1472.901,689.127H1197.77c-13.897,0-25.163,11.266-25.163,25.163v115.969    c0,13.897,11.266,25.163,25.163,25.163h25.51v62.662l66.655-62.662h182.966c13.897,0,25.163-11.266,25.163-25.163V714.29    C1498.064,700.393,1486.798,689.127,1472.901,689.127z"/>
		<g style="opacity:0.39;">
			<g>
				<path style="fill:#007CF4;" d="M1465.027,730.774h-248.416c-2.991,0-5.415-2.424-5.415-5.415l0,0      c0-2.991,2.425-5.415,5.415-5.415h248.416c2.991,0,5.415,2.424,5.415,5.415l0,0      C1470.442,728.35,1468.018,730.774,1465.027,730.774z"/>
				<path style="fill:#007CF4;" d="M1465.027,749.103h-248.416c-2.991,0-5.415-2.424-5.415-5.415l0,0      c0-2.991,2.425-5.415,5.415-5.415h248.416c2.991,0,5.415,2.424,5.415,5.415l0,0      C1470.442,746.679,1468.018,749.103,1465.027,749.103z"/>
				<path style="fill:#007CF4;" d="M1463.9,767.432h-247.288c-2.991,0-5.415-2.425-5.415-5.415l0,0c0-2.991,2.425-5.415,5.415-5.415      H1463.9c2.991,0,5.415,2.425,5.415,5.415l0,0C1469.315,765.008,1466.891,767.432,1463.9,767.432z"/>
			</g>
			<g>
				<path style="fill:#007CF4;" d="M1465.027,785.364h-248.416c-2.991,0-5.415-2.424-5.415-5.415l0,0      c0-2.991,2.425-5.415,5.415-5.415h248.416c2.991,0,5.415,2.425,5.415,5.415l0,0      C1470.442,782.94,1468.018,785.364,1465.027,785.364z"/>
				<path style="fill:#007CF4;" d="M1465.027,803.693h-248.416c-2.991,0-5.415-2.425-5.415-5.415l0,0      c0-2.991,2.425-5.415,5.415-5.415h248.416c2.991,0,5.415,2.425,5.415,5.415l0,0      C1470.442,801.268,1468.018,803.693,1465.027,803.693z"/>
				<path style="fill:#007CF4;" d="M1378.206,822.022h-161.595c-2.991,0-5.415-2.424-5.415-5.415l0,0      c0-2.991,2.425-5.415,5.415-5.415h161.595c2.991,0,5.415,2.424,5.415,5.415l0,0      C1383.621,819.597,1381.197,822.022,1378.206,822.022z"/>
			</g>
		</g>
	</g>
</g>
<g id="man">
	<g>
		<g>
			<linearGradient id="SVGID_1_" gradientUnits="userSpaceOnUse" x1="1001.098" y1="760.3735" x2="1002.7744" y2="839.1669">
				<stop offset="0.4185" style="stop-color:#FFACAA"/>
				<stop offset="0.5497" style="stop-color:#FFA7A6"/>
				<stop offset="0.7018" style="stop-color:#FE9A98"/>
				<stop offset="0.8636" style="stop-color:#FC8480"/>
				<stop offset="1" style="stop-color:#FB6B67"/>
			</linearGradient>
			<path style="fill:url(#SVGID_1_);" d="M1040.09,775.873v-17.187c0-12.121-9.826-21.947-21.947-21.947h-32.047     c-12.121,0-21.947,9.826-21.947,21.947v17.28c-0.308-0.026-0.604-0.093-0.919-0.093c-6.009,0-10.88,4.871-10.88,10.88     c0,6.009,4.871,10.88,10.88,10.88c0.315,0,0.611-0.066,0.919-0.093v1.256c0,10.268,4.093,19.568,10.716,26.403l-8.003,66.976     h70.089l-7.953-66.561c6.854-6.869,11.093-16.348,11.093-26.818v-1.164c6.009,0,10.88-4.871,10.88-10.88     C1050.97,780.744,1046.099,775.873,1040.09,775.873z"/>
			<path d="M1061.186,696.533c-1.701,0-11.6,0-59.28,0c-67.602,0-46.722,34.15-46.722,34.15     c-7.004,13.331-4.199,29.995-0.591,41.681h-0.001c7.704,36.261,47.313,37.497,47.313,37.497     c41.101-4.175,46.474-37.497,46.474-37.497h-0.001c3.608-11.686,6.413-28.35-0.591-41.681c-0.21-0.399-0.472-0.737-0.695-1.121     C1068.104,721.813,1061.186,696.533,1061.186,696.533z"/>
		</g>
		<g>
			<g>
				
					<linearGradient id="SVGID_00000030445615666504743750000007571321095969724040_" gradientUnits="userSpaceOnUse" x1="1896.5386" y1="2090.55" x2="1928.1581" y2="1894.5081" gradientTransform="matrix(-0.8971 -0.4417 -0.4417 0.8971 3326.7366 773.5915)">
					<stop offset="0.3006" style="stop-color:#FFACAC"/>
					<stop offset="0.3915" style="stop-color:#FEA5A5"/>
					<stop offset="0.5231" style="stop-color:#FD9391"/>
					<stop offset="0.679" style="stop-color:#FB7672"/>
					<stop offset="0.7388" style="stop-color:#FA6964"/>
				</linearGradient>
				<path style="fill:url(#SVGID_00000030445615666504743750000007571321095969724040_);" d="M776.09,1644.97l-12.043,30.572      c0,0,17.725,16.474,3.668,25.336c-14.056,8.862-25.202,8.995-31.962,24.08c-6.76,15.084-17.863,30.571-31.918,33.614      c0,0-0.941,15.085-19.831,12.577l38.417-140.82L776.09,1644.97z"/>
				<path style="fill:#050542;" d="M950.866,1405.968l-158.325,266.997l-89.662-36.244c0,0,78.866-459.027,283.881-349.846      L950.866,1405.968z"/>
			</g>
			<g>
				
					<linearGradient id="SVGID_00000136381189270669810570000006699625797967504817_" gradientUnits="userSpaceOnUse" x1="1061.0872" y1="1777.1078" x2="1084.2417" y2="1633.5488">
					<stop offset="0.3006" style="stop-color:#FFACAC"/>
					<stop offset="0.3915" style="stop-color:#FEA5A5"/>
					<stop offset="0.5231" style="stop-color:#FD9391"/>
					<stop offset="0.679" style="stop-color:#FB7672"/>
					<stop offset="0.7388" style="stop-color:#FA6964"/>
				</linearGradient>
				<path style="fill:url(#SVGID_00000136381189270669810570000006699625797967504817_);" d="M1099.571,1720.94      c0.761-1.504,1.402-3.095,1.881-4.777l16.422-57.614l-51.578-14.702l-16.422,57.614c-0.366,1.285-0.599,2.574-0.769,3.86      c-9.308,1.384-17.503,7.845-20.595,17.406l-0.502,1.554c-2.009,6.212,1.399,12.876,7.611,14.885l56.183,18.168      c6.212,2.009,12.876-1.399,14.885-7.611l0.502-1.554C1110.449,1738.088,1107.115,1727.457,1099.571,1720.94z"/>
				<path style="fill:#050542;" d="M1077.783,1352.553l-39.877,298.903l92.443,18.521c0,0,179.109-429.476-46.222-449.683      L1077.783,1352.553z"/>
			</g>
		</g>
		<g>
			<path style="fill:#FA6964;" d="M799.73,1048.188l60.871-2.677l2.505,60.578l-56.679,10.14     c-17.812,3.187-35.204-7.407-40.544-24.696l0,0C758.997,1069.241,776.434,1046.912,799.73,1048.188z"/>
			
				<linearGradient id="SVGID_00000053541448175915096960000013331618688592875424_" gradientUnits="userSpaceOnUse" x1="881.7608" y1="1395.8684" x2="883.0627" y2="1229.2218" gradientTransform="matrix(0.9243 0.3816 -0.3816 0.9243 492.5043 -488.4595)">
				<stop offset="0.2246" style="stop-color:#FFACAA"/>
				<stop offset="0.3749" style="stop-color:#FEA09E"/>
				<stop offset="0.6487" style="stop-color:#FC817D"/>
				<stop offset="0.8097" style="stop-color:#FB6B67"/>
			</linearGradient>
			<path style="fill:url(#SVGID_00000053541448175915096960000013331618688592875424_);" d="M785.394,1114.722L785.394,1114.722     c-18.24-7.531-26.922-28.422-19.392-46.662l28.971-70.173l62.864,34.996l-25.781,62.447     C824.526,1113.571,803.634,1122.253,785.394,1114.722z"/>
		</g>
		<g>
			<path style="fill:#FA6964;" d="M1209.032,1152.01l-76.815-28.15l2.229-53.907l88.261,17.108     c14.252,2.762,24.4,18.11,23.658,35.779v0C1245.408,1145.621,1226.176,1160.648,1209.032,1152.01z"/>
			
				<linearGradient id="SVGID_00000015330195638325355870000007272892216570098061_" gradientUnits="userSpaceOnUse" x1="1966.0986" y1="955.5571" x2="1967.3458" y2="795.9069" gradientTransform="matrix(-0.8889 0.4582 0.4582 0.8889 2563.5408 -568.5757)">
				<stop offset="0.2246" style="stop-color:#FFACAA"/>
				<stop offset="0.3749" style="stop-color:#FEA09E"/>
				<stop offset="0.6487" style="stop-color:#FC817D"/>
				<stop offset="0.8097" style="stop-color:#FB6B67"/>
			</linearGradient>
			<path style="fill:url(#SVGID_00000015330195638325355870000007272892216570098061_);" d="M1238.47,1150.883L1238.47,1150.883     c17.54-9.042,24.43-30.59,15.389-48.131l-51.228-97.971l-66.82,32.178l54.529,98.535     C1199.381,1153.035,1220.93,1159.925,1238.47,1150.883z"/>
		</g>
		<g>
			<path style="fill:#007CF4;" d="M1237.074,988.195l-37.349-47.825c-6.179-7.912-11.692-16.303-17.124-24.746     c-24.508-38.091-66.682-59.379-109.979-58.598c-4.449-0.717-9.013-1.11-13.677-1.11H937.112c-4.656,0-9.214,0.393-13.655,1.107     c-42.724-0.18-84.137,21.079-108.3,58.731c-7.342,11.44-15.823,22.107-24.601,32.486l-27.266,32.237l96.919,55.545l7.48,180.923     c0.224,5.419,4.682,9.697,10.106,9.697h240.469c5.424,0,9.882-4.278,10.106-9.697l7.441-179.985L1237.074,988.195z"/>
			
				<line style="fill:none;stroke:#1F191A;stroke-width:2.3477;stroke-linecap:round;stroke-linejoin:round;stroke-miterlimit:10;" x1="859.924" y1="1035.864" x2="857.838" y2="922.942"/>
			
				<line style="fill:none;stroke:#1F191A;stroke-width:2.3477;stroke-linecap:round;stroke-linejoin:round;stroke-miterlimit:10;" x1="1135.81" y1="1036.959" x2="1138.707" y2="919.96"/>
		</g>
	</g>
	<g>
		<g>
			<g>
				<rect x="982.043" y="1466.053" style="fill:#72C4F4;" width="37.161" height="195.363"/>
			</g>
		</g>
		<g>
			<g>
				<g>
					<path style="fill:#CAE6F7;" d="M1139.516,1456.673H867.71c-14.488,0-26.234-11.745-26.234-26.234v-271.806       c0-14.489,11.745-26.234,26.234-26.234h271.806c14.488,0,26.234,11.745,26.234,26.234v271.806       C1165.75,1444.928,1154.005,1456.673,1139.516,1456.673z"/>
				</g>
			</g>
			<g>
				<g>
					<path style="fill:#007CF4;" d="M1126.997,1169.784H880.229c-1.02,0-1.848-0.826-1.848-1.846s0.828-1.846,1.848-1.846h246.768       c1.02,0,1.848,0.826,1.848,1.846S1128.017,1169.784,1126.997,1169.784z"/>
				</g>
				<g>
					<path style="fill:#007CF4;" d="M1126.997,1212.676H880.229c-1.02,0-1.848-0.826-1.848-1.846c0-1.02,0.828-1.846,1.848-1.846       h246.768c1.02,0,1.848,0.826,1.848,1.846C1128.845,1211.85,1128.017,1212.676,1126.997,1212.676z"/>
				</g>
				<g>
					<path style="fill:#007CF4;" d="M1126.997,1255.566H880.229c-1.02,0-1.848-0.826-1.848-1.846c0-1.02,0.828-1.846,1.848-1.846       h246.768c1.02,0,1.848,0.826,1.848,1.846C1128.845,1254.74,1128.017,1255.566,1126.997,1255.566z"/>
				</g>
				<g>
					<path style="fill:#007CF4;" d="M1126.997,1298.458H880.229c-1.02,0-1.848-0.826-1.848-1.846s0.828-1.846,1.848-1.846h246.768       c1.02,0,1.848,0.826,1.848,1.846S1128.017,1298.458,1126.997,1298.458z"/>
				</g>
				<g>
					<path style="fill:#007CF4;" d="M1126.997,1341.348H880.229c-1.02,0-1.848-0.826-1.848-1.846c0-1.02,0.828-1.846,1.848-1.846       h246.768c1.02,0,1.848,0.826,1.848,1.846C1128.845,1340.522,1128.017,1341.348,1126.997,1341.348z"/>
				</g>
				<g>
					<path style="fill:#007CF4;" d="M1126.997,1384.24H880.229c-1.02,0-1.848-0.826-1.848-1.846s0.828-1.846,1.848-1.846h246.768       c1.02,0,1.848,0.826,1.848,1.846S1128.017,1384.24,1126.997,1384.24z"/>
				</g>
				<g>
					<path style="fill:#007CF4;" d="M1126.997,1427.13H880.229c-1.02,0-1.848-0.826-1.848-1.846s0.828-1.846,1.848-1.846h246.768       c1.02,0,1.848,0.826,1.848,1.846S1128.017,1427.13,1126.997,1427.13z"/>
				</g>
			</g>
		</g>
		<g>
			<g>
				<path style="fill:#72C4F4;" d="M1043.681,1484.845h-80.136c-23.596,0-42.724-19.128-42.724-42.724v-149.828      c0-11.627,9.425-21.052,21.052-21.052h123.481c11.627,0,21.052,9.425,21.052,21.052v149.828      C1086.406,1465.717,1067.277,1484.845,1043.681,1484.845z"/>
			</g>
		</g>
		<g>
			<g>
				<polygon style="fill:#72C4F4;" points="1002.578,1647.686 1002.578,1699.108 812.738,1738.572 821.109,1706.284     "/>
			</g>
		</g>
		<g>
			<g>
				<polygon style="fill:#BBE0F8;" points="1001.84,1647.686 1001.84,1699.108 1191.679,1738.572 1183.308,1706.284     "/>
			</g>
		</g>
		<g>
			<g>
				<path style="fill:#050542;" d="M826.13,1779.791L826.13,1779.791c-7.396,0-13.392-5.996-13.392-13.392v-29.935      c0-7.396,5.996-13.392,13.392-13.392l0,0c7.396,0,13.392,5.996,13.392,13.392v29.935      C839.523,1773.795,833.527,1779.791,826.13,1779.791z"/>
			</g>
		</g>
		<g>
			<g>
				<path style="fill:#050542;" d="M1181.096,1779.791L1181.096,1779.791c-7.396,0-13.392-5.996-13.392-13.392v-29.935      c0-7.396,5.996-13.392,13.392-13.392l0,0c7.396,0,13.392,5.996,13.392,13.392v29.935      C1194.488,1773.795,1188.493,1779.791,1181.096,1779.791z"/>
			</g>
		</g>
	</g>
</g>
<g id="plant_1_">
	<g>
		<ellipse style="fill:#007CF4;" cx="583.464" cy="1072.876" rx="50.366" ry="11.391"/>
	</g>
	<g>
		<g>
			<g>
				<defs>
					<path id="SVGID_00000119828660768778230050000007333233227034254781_" d="M578.314,1010.934c0,0,19.424-53.795-18.103-75.191       c-37.527-21.396-12.601,66.021,0,75.191H578.314z"/>
				</defs>
				<use xlink:href="#SVGID_00000119828660768778230050000007333233227034254781_" style="overflow:visible;fill:#63C7BB;"/>
				<clipPath id="SVGID_00000007390025493367009810000011017049854940353979_">
					<use xlink:href="#SVGID_00000119828660768778230050000007333233227034254781_" style="overflow:visible;"/>
				</clipPath>
				<g style="clip-path:url(#SVGID_00000007390025493367009810000011017049854940353979_);">
					<path style="fill:#88CFCA;" d="M562.857,1012.676c-2.12-15.99-7.08-31.68-11.876-46.852c-3.28-10.368-6.668-21.088-9.14-31.85       l1.296-0.3c2.46,10.712,5.844,21.406,9.112,31.748c4.816,15.228,9.796,30.974,11.928,47.078L562.857,1012.676z"/>
				</g>
				<g style="clip-path:url(#SVGID_00000007390025493367009810000011017049854940353979_);">
					<path style="fill:#88CFCA;" d="M571.965,1012.954c-1.056-10.39-2.152-21.134-4.976-31.408       c-1.852-6.742-4.492-13.416-7.048-19.872c-4.152-10.488-8.444-21.334-9.464-32.754l1.328-0.12       c1.004,11.23,5.26,21.984,9.376,32.384c2.568,6.488,5.224,13.198,7.096,20.01c2.848,10.38,3.952,21.18,5.016,31.624       L571.965,1012.954z"/>
				</g>
				<g style="clip-path:url(#SVGID_00000007390025493367009810000011017049854940353979_);">
					<path style="fill:#88CFCA;" d="M581.353,1012.272c-0.492-13.148-1.58-27.09-6.18-39.98c-1.692-4.742-3.9-9.466-6.032-14.034       c-4.596-9.834-9.348-20.004-9.26-30.98l1.336,0.012c-0.088,10.674,4.6,20.704,9.132,30.404c2.144,4.596,4.368,9.35,6.08,14.15       c4.66,13.06,5.76,27.124,6.252,40.38L581.353,1012.272z"/>
				</g>
			</g>
			<g>
				<defs>
					<path id="SVGID_00000153680690734670221420000005351391558499461554_" d="M567.921,1011.026c0,0-9.011-124.096,46.233-110.647       c55.244,13.449-23.389,110.647-23.389,110.647H567.921z"/>
				</defs>
				<use xlink:href="#SVGID_00000153680690734670221420000005351391558499461554_" style="overflow:visible;fill:#88CFCA;"/>
				<clipPath id="SVGID_00000163060494982350159490000012014419246894257286_">
					<use xlink:href="#SVGID_00000153680690734670221420000005351391558499461554_" style="overflow:visible;"/>
				</clipPath>
				<g style="clip-path:url(#SVGID_00000163060494982350159490000012014419246894257286_);">
					<g>
						<path style="fill:#63C7BB;" d="M574.094,1013.271c7.072-40.003,8.938-84.071,35.753-116.963        c0.806-0.989-0.6-2.411-1.413-1.413c-27.099,33.239-29.116,77.393-36.267,117.845        C571.945,1013.997,573.871,1014.537,574.094,1013.271L574.094,1013.271z"/>
					</g>
				</g>
				<g style="clip-path:url(#SVGID_00000163060494982350159490000012014419246894257286_);">
					<g>
						<path style="fill:#63C7BB;" d="M626.577,895.445c-25.623,36.233-30.604,81.674-48.655,121.409        c-0.528,1.162,1.194,2.179,1.726,1.009c18.046-39.722,23.049-85.201,48.655-121.409        C629.047,895.402,627.315,894.402,626.577,895.445L626.577,895.445z"/>
					</g>
				</g>
				<g style="clip-path:url(#SVGID_00000163060494982350159490000012014419246894257286_);">
					<g>
						<path style="fill:#63C7BB;" d="M634.543,909.275c-18.187,31.871-25.736,68.824-46.412,99.39        c-0.723,1.068,1.008,2.07,1.726,1.009c20.679-30.57,28.226-67.52,46.412-99.39        C636.907,909.165,635.181,908.156,634.543,909.275L634.543,909.275z"/>
					</g>
				</g>
			</g>
			<g>
				<defs>
					<path id="SVGID_00000014600764393324729250000013750791155658981782_" d="M578.314,1010.934c0,0,8.944-65.088,55.516-51.183       c46.572,13.904-27.758,51.183-27.758,51.183H578.314z"/>
				</defs>
				<use xlink:href="#SVGID_00000014600764393324729250000013750791155658981782_" style="overflow:visible;fill:#63C7BB;"/>
				<clipPath id="SVGID_00000178917200298748919390000013203815058007636650_">
					<use xlink:href="#SVGID_00000014600764393324729250000013750791155658981782_" style="overflow:visible;"/>
				</clipPath>
				<g style="clip-path:url(#SVGID_00000178917200298748919390000013203815058007636650_);">
					<path style="fill:#88CFCA;" d="M597.617,1012.69l-0.928-0.956c7.796-7.584,17.048-13.792,25.996-19.794       c12.108-8.124,24.628-16.524,33.356-28.318l1.072,0.792c-8.868,11.98-21.484,20.446-33.688,28.632       C614.529,999.016,605.325,1005.188,597.617,1012.69z"/>
				</g>
				<g style="clip-path:url(#SVGID_00000178917200298748919390000013203815058007636650_);">
					<path style="fill:#88CFCA;" d="M585.733,1013.352l-0.992-0.892c18.948-20.95,39.984-40.194,62.536-57.198l0.8,1.064       C625.597,973.28,604.621,992.466,585.733,1013.352z"/>
				</g>
				<g style="clip-path:url(#SVGID_00000178917200298748919390000013203815058007636650_);">
					<path style="fill:#88CFCA;" d="M580.841,1013.152l-1.108-0.74l19.176-28.688c2.228-3.334,4.532-6.782,7.096-9.968       c5.648-7.004,12.616-12.836,19.352-18.476l0.856,1.02c-6.688,5.6-13.604,11.39-19.168,18.292       c-2.532,3.138-4.816,6.562-7.028,9.872L580.841,1013.152z"/>
				</g>
			</g>
			<g>
				<path style="fill:#92D2CE;" d="M600.891,914.468l-0.983-2.282l2.198-0.945c0.575-0.246,0.839-0.914,0.593-1.487      c-0.246-0.57-0.911-0.84-1.487-0.593l-2.199,0.946l-0.982-2.281c-0.249-0.574-0.914-0.839-1.487-0.592      c-0.576,0.248-0.839,0.914-0.592,1.487l0.983,2.281l-2.365,1.017c-0.575,0.246-0.839,0.914-0.592,1.487      c0.112,0.259,0.307,0.455,0.544,0.57c0.286,0.14,0.628,0.159,0.944,0.022l2.366-1.018l0.983,2.282      c0.112,0.259,0.309,0.456,0.543,0.57c0.286,0.14,0.629,0.159,0.944,0.022C600.875,915.708,601.138,915.041,600.891,914.468z"/>
			</g>
			<g>
				<path style="fill:#92D2CE;" d="M582.688,973.57l-0.983-2.282l2.198-0.946c0.575-0.246,0.839-0.914,0.593-1.487      c-0.246-0.57-0.911-0.841-1.487-0.592l-2.199,0.946l-0.983-2.281c-0.249-0.574-0.914-0.839-1.487-0.592      c-0.576,0.248-0.839,0.914-0.593,1.487l0.983,2.281l-2.365,1.017c-0.575,0.246-0.839,0.914-0.592,1.487      c0.112,0.259,0.307,0.455,0.543,0.57c0.286,0.14,0.629,0.159,0.944,0.022l2.366-1.018l0.983,2.282      c0.112,0.259,0.309,0.456,0.543,0.57c0.286,0.139,0.629,0.159,0.944,0.022C582.672,974.809,582.935,974.143,582.688,973.57z"/>
			</g>
			<g>
				<path style="fill:#92D2CE;" d="M611.201,933.195l-0.983-2.282l2.198-0.945c0.575-0.246,0.839-0.914,0.592-1.487      c-0.246-0.57-0.911-0.84-1.487-0.592l-2.199,0.946l-0.983-2.281c-0.249-0.574-0.914-0.839-1.487-0.593      c-0.576,0.248-0.839,0.914-0.592,1.487l0.982,2.281l-2.365,1.017c-0.575,0.246-0.839,0.914-0.593,1.487      c0.112,0.259,0.307,0.455,0.544,0.57c0.286,0.14,0.629,0.159,0.944,0.022l2.366-1.018l0.983,2.282      c0.112,0.259,0.309,0.456,0.544,0.57c0.286,0.14,0.628,0.159,0.943,0.022C611.184,934.435,611.447,933.768,611.201,933.195z"/>
			</g>
			<g>
				<path style="fill:#92D2CE;" d="M603.157,956.223l-0.983-2.282l2.198-0.946c0.575-0.246,0.839-0.914,0.592-1.487      c-0.246-0.57-0.911-0.84-1.487-0.593l-2.199,0.946l-0.983-2.281c-0.249-0.574-0.914-0.839-1.487-0.593      c-0.576,0.248-0.839,0.914-0.593,1.487l0.982,2.281l-2.365,1.017c-0.575,0.246-0.839,0.914-0.592,1.487      c0.112,0.259,0.307,0.455,0.544,0.57c0.286,0.14,0.628,0.159,0.944,0.022l2.366-1.018l0.983,2.282      c0.112,0.259,0.309,0.456,0.543,0.57c0.286,0.14,0.628,0.159,0.944,0.022C603.14,957.462,603.404,956.796,603.157,956.223z"/>
			</g>
			<g>
				<path style="fill:#92D2CE;" d="M629.376,928.742l-0.983-2.282l2.198-0.945c0.575-0.246,0.839-0.914,0.593-1.487      c-0.246-0.57-0.911-0.84-1.487-0.593l-2.199,0.946l-0.983-2.281c-0.249-0.574-0.914-0.839-1.487-0.592      c-0.576,0.248-0.839,0.914-0.593,1.487l0.983,2.281l-2.365,1.017c-0.575,0.246-0.839,0.914-0.592,1.487      c0.112,0.259,0.307,0.455,0.544,0.57c0.286,0.14,0.628,0.159,0.944,0.022l2.366-1.018l0.983,2.282      c0.112,0.259,0.309,0.456,0.544,0.57c0.286,0.14,0.628,0.159,0.943,0.022C629.359,929.981,629.623,929.315,629.376,928.742z"/>
			</g>
			<g>
				<path style="fill:#92D2CE;" d="M622.177,948.617l-0.983-2.282l2.198-0.945c0.575-0.246,0.839-0.914,0.592-1.487      c-0.246-0.57-0.911-0.84-1.487-0.592l-2.199,0.946l-0.983-2.281c-0.249-0.574-0.914-0.839-1.487-0.593      c-0.576,0.248-0.84,0.914-0.593,1.487l0.982,2.281l-2.365,1.017c-0.575,0.246-0.839,0.914-0.593,1.487      c0.112,0.259,0.307,0.455,0.544,0.57c0.286,0.14,0.628,0.159,0.944,0.022l2.366-1.018l0.983,2.282      c0.112,0.259,0.309,0.456,0.544,0.57c0.286,0.14,0.628,0.159,0.943,0.022C622.16,949.856,622.424,949.19,622.177,948.617z"/>
			</g>
			<g>
				<path style="fill:#92D2CE;" d="M620.468,914.468l-0.983-2.282l2.198-0.945c0.575-0.246,0.839-0.914,0.592-1.487      c-0.246-0.57-0.911-0.84-1.487-0.593l-2.199,0.946l-0.983-2.281c-0.249-0.574-0.914-0.839-1.487-0.592      c-0.576,0.248-0.839,0.914-0.592,1.487l0.982,2.281l-2.365,1.017c-0.575,0.246-0.839,0.914-0.592,1.487      c0.112,0.259,0.307,0.455,0.544,0.57c0.286,0.14,0.628,0.159,0.944,0.022l2.366-1.018l0.983,2.282      c0.112,0.259,0.309,0.456,0.544,0.57c0.286,0.14,0.628,0.159,0.944,0.022C620.452,915.708,620.715,915.041,620.468,914.468z"/>
			</g>
			<g>
				<path style="fill:#92D2CE;" d="M557.67,941.84l-2.237-1.081l1.042-2.154c0.274-0.562,0.036-1.241-0.526-1.512      c-0.559-0.27-1.239-0.039-1.512,0.526l-1.043,2.155l-2.236-1.081c-0.564-0.271-1.241-0.036-1.512,0.526      c-0.273,0.565-0.036,1.24,0.526,1.512l2.236,1.081l-1.122,2.318c-0.274,0.562-0.036,1.24,0.526,1.512      c0.254,0.122,0.53,0.143,0.784,0.075c0.308-0.082,0.579-0.291,0.728-0.601l1.122-2.318l2.237,1.081      c0.255,0.122,0.532,0.142,0.784,0.075c0.308-0.082,0.579-0.291,0.728-0.601C558.469,942.787,558.232,942.112,557.67,941.84z"/>
			</g>
			<g>
				<path style="fill:#92D2CE;" d="M612.395,972.131l-2.237-1.081l1.042-2.154c0.274-0.562,0.036-1.24-0.526-1.512      c-0.559-0.27-1.239-0.039-1.512,0.526l-1.043,2.155l-2.236-1.081c-0.564-0.271-1.241-0.036-1.512,0.526      c-0.273,0.565-0.036,1.24,0.526,1.512l2.236,1.081l-1.122,2.317c-0.274,0.562-0.036,1.24,0.526,1.512      c0.254,0.122,0.53,0.143,0.784,0.075c0.308-0.082,0.579-0.291,0.728-0.601l1.122-2.318l2.237,1.081      c0.254,0.122,0.532,0.142,0.784,0.075c0.308-0.082,0.579-0.291,0.728-0.601C613.194,973.079,612.957,972.403,612.395,972.131z"/>
			</g>
			<g>
				<path style="fill:#92D2CE;" d="M630.571,972.131l-2.237-1.081l1.042-2.154c0.274-0.562,0.036-1.24-0.526-1.512      c-0.559-0.27-1.239-0.039-1.512,0.526l-1.043,2.155l-2.236-1.081c-0.564-0.271-1.24-0.036-1.512,0.526      c-0.273,0.565-0.036,1.24,0.526,1.512l2.236,1.081l-1.122,2.317c-0.274,0.562-0.036,1.24,0.526,1.512      c0.254,0.122,0.53,0.143,0.784,0.075c0.308-0.082,0.579-0.291,0.728-0.601l1.122-2.318l2.237,1.081      c0.254,0.122,0.532,0.142,0.784,0.075c0.308-0.082,0.579-0.291,0.728-0.601C631.37,973.079,631.133,972.403,630.571,972.131z"/>
			</g>
			<g>
				<path style="fill:#92D2CE;" d="M633.19,989.228l-2.237-1.081l1.042-2.154c0.274-0.562,0.036-1.24-0.526-1.512      c-0.559-0.27-1.239-0.039-1.512,0.526l-1.043,2.155l-2.236-1.081c-0.564-0.271-1.24-0.036-1.512,0.526      c-0.273,0.564-0.036,1.24,0.526,1.512l2.236,1.081l-1.122,2.317c-0.274,0.562-0.036,1.241,0.526,1.512      c0.254,0.122,0.53,0.143,0.784,0.075c0.308-0.082,0.579-0.291,0.728-0.601l1.122-2.318l2.237,1.081      c0.254,0.122,0.532,0.142,0.784,0.075c0.308-0.082,0.579-0.291,0.728-0.601C633.989,990.175,633.752,989.5,633.19,989.228z"/>
			</g>
			<g>
				<path style="fill:#92D2CE;" d="M610.4,989.565l-2.418,0.572l-0.55-2.329c-0.142-0.609-0.755-0.985-1.362-0.841      c-0.604,0.143-0.986,0.752-0.841,1.362l0.55,2.329l-2.417,0.572c-0.609,0.146-0.985,0.755-0.841,1.362      c0.144,0.61,0.755,0.985,1.362,0.841l2.417-0.572l0.592,2.506c0.143,0.609,0.755,0.985,1.362,0.841      c0.274-0.066,0.501-0.224,0.656-0.436c0.187-0.258,0.266-0.591,0.186-0.925l-0.592-2.506l2.418-0.572      c0.274-0.066,0.502-0.225,0.656-0.436c0.187-0.258,0.266-0.591,0.186-0.925C611.617,989.796,611.007,989.421,610.4,989.565z"/>
			</g>
			<g>
				<path style="fill:#92D2CE;" d="M594.66,994.181l-2.452,0.401l-0.386-2.361c-0.099-0.618-0.684-1.036-1.299-0.935      c-0.613,0.101-1.036,0.681-0.935,1.3l0.386,2.362l-2.451,0.402c-0.617,0.103-1.035,0.684-0.935,1.3      c0.101,0.619,0.684,1.036,1.3,0.935l2.451-0.401l0.415,2.541c0.099,0.617,0.684,1.036,1.3,0.935      c0.278-0.046,0.516-0.188,0.685-0.389c0.205-0.244,0.306-0.571,0.25-0.91l-0.415-2.542l2.452-0.401      c0.278-0.046,0.517-0.19,0.685-0.389c0.205-0.244,0.306-0.571,0.25-0.91C595.859,994.496,595.276,994.08,594.66,994.181z"/>
			</g>
			<g>
				<path style="fill:#92D2CE;" d="M553.282,960.303l-2.082-1.357l1.307-2.004c0.343-0.523,0.193-1.226-0.33-1.567      c-0.52-0.339-1.224-0.196-1.566,0.33l-1.308,2.005l-2.081-1.356c-0.525-0.34-1.226-0.193-1.566,0.33      c-0.343,0.525-0.193,1.226,0.33,1.566l2.081,1.356l-1.407,2.156c-0.343,0.523-0.193,1.226,0.33,1.567      c0.237,0.153,0.508,0.209,0.768,0.174c0.315-0.042,0.611-0.215,0.798-0.504l1.407-2.157l2.082,1.357      c0.237,0.154,0.51,0.208,0.768,0.174c0.316-0.042,0.611-0.215,0.798-0.504C553.954,961.345,553.804,960.644,553.282,960.303z"/>
			</g>
			<g>
				<path style="fill:#92D2CE;" d="M560.363,988.345l-2.082-1.357l1.307-2.004c0.343-0.523,0.193-1.226-0.33-1.566      c-0.52-0.339-1.224-0.196-1.566,0.33l-1.308,2.005l-2.081-1.356c-0.525-0.34-1.226-0.193-1.567,0.33      c-0.342,0.525-0.193,1.226,0.33,1.566l2.081,1.356l-1.407,2.156c-0.343,0.523-0.193,1.226,0.33,1.566      c0.237,0.154,0.507,0.209,0.768,0.174c0.316-0.042,0.611-0.216,0.798-0.504l1.407-2.157l2.081,1.357      c0.237,0.154,0.51,0.208,0.768,0.174c0.315-0.042,0.611-0.216,0.798-0.504C561.035,989.386,560.886,988.686,560.363,988.345z"/>
			</g>
			<g>
				<path style="fill:#92D2CE;" d="M565.5,967.436l-2.082-1.357l1.307-2.004c0.343-0.523,0.193-1.226-0.33-1.566      c-0.52-0.339-1.224-0.196-1.566,0.33l-1.308,2.005l-2.081-1.356c-0.525-0.34-1.226-0.193-1.567,0.33      c-0.342,0.525-0.193,1.226,0.33,1.566l2.081,1.356l-1.407,2.156c-0.343,0.523-0.193,1.226,0.33,1.566      c0.237,0.154,0.507,0.209,0.768,0.174c0.316-0.042,0.611-0.216,0.798-0.504l1.407-2.157l2.082,1.357      c0.237,0.154,0.51,0.208,0.768,0.174c0.316-0.042,0.611-0.216,0.798-0.504C566.172,968.477,566.023,967.777,565.5,967.436z"/>
			</g>
			<g>
				<path style="fill:#92D2CE;" d="M589.409,939.71l-0.983-2.282l2.198-0.945c0.575-0.246,0.839-0.914,0.593-1.487      c-0.246-0.57-0.911-0.84-1.487-0.593l-2.199,0.946l-0.983-2.281c-0.249-0.574-0.914-0.839-1.487-0.592      c-0.576,0.248-0.839,0.914-0.593,1.487l0.983,2.281l-2.365,1.017c-0.575,0.246-0.839,0.914-0.593,1.487      c0.112,0.259,0.307,0.455,0.544,0.57c0.286,0.14,0.628,0.159,0.943,0.022l2.366-1.018l0.983,2.282      c0.112,0.259,0.309,0.456,0.544,0.57c0.286,0.14,0.628,0.159,0.943,0.022C589.393,940.949,589.656,940.283,589.409,939.71z"/>
			</g>
		</g>
		<g>
			<path style="fill:#72C4F4;" d="M605.632,1071.522h-40.739c-10.726,0-19.422-8.695-19.422-19.421v-41.074h79.582v41.074     C625.054,1062.827,616.358,1071.522,605.632,1071.522z"/>
		</g>
		<g>
			<rect x="545.473" y="1019.68" style="fill:#F5FAFF;" width="79.58" height="4.096"/>
		</g>
	</g>
</g>
<g id="coffee">
	<ellipse style="fill:#007CF4;" cx="1406.848" cy="1121.91" rx="47.301" ry="11.143"/>
	<path style="fill:#FFFFFF;" d="M1375.104,1042.119v59.041c0,12.413,10.063,22.476,22.476,22.476h16.473   c11.951,0,21.629-9.354,22.341-21.125h20.902v-48.3h-20.766v-12.092H1375.104z M1452.629,1097.844h-16.099v-38.966h16.099V1097.844   z"/>
</g>
</svg>